<?xml version="1.0" encoding="UTF-8" standalone="no"?>
<svg width="50px" height="50px" viewBox="0 0 50 50" version="1.1" xmlns="http://www.w3.org/2000/svg" xmlns:xlink="http://www.w3.org/1999/xlink" xmlns:sketch="http://www.bohemiancoding.com/sketch/ns">
    <!-- Generator: Sketch 3.3.3 (12072) - http://www.bohemiancoding.com/sketch -->
    <title>replay</title>
    <desc>Created with Sketch.</desc>
    <defs></defs>
    <g id="Page-1" stroke="none" stroke-width="1" fill="none" fill-rule="evenodd" sketch:type="MSPage">
        <g id="replay" sketch:type="MSArtboardGroup" fill="#FF0000">
            <path d="M26.0825267,2.16179742 C19.8675497,2.16179742 14.2384106,4.53062065 9.95924605,8.45318815 L1.85939888,0.302398537 C1.57921549,-0.00325607282 1.09526235,-0.0541985079 0.662251656,0.0476863622 C0.229240958,0.225984885 0,0.658995583 0,1.09200628 L0,21.7236925 C0,22.3350017 0.483953133,22.8189548 1.09526235,22.8189548 L21.7269485,22.8189548 C22.1599592,22.8189548 22.5929699,22.5897139 22.7712685,22.1567032 C22.8731533,21.7236925 22.8222109,21.2397393 22.5165563,20.9595559 L16.1232807,14.6172228 C18.7722873,12.2483996 22.2873153,10.8729538 26.0825267,10.8729538 C34.4625573,10.8729538 41.2888436,17.6992401 41.2888436,26.0792707 C41.2888436,34.4593012 34.4625573,41.2855875 26.0825267,41.2855875 C22.2873153,41.2855875 18.7213449,39.8337281 16.0723383,37.5413186 C15.6393276,37.1337791 14.9770759,37.1847215 14.6204789,37.5413186 L9.95924605,42.2025514 C9.73000509,42.4317923 9.65359144,42.6865045 9.65359144,42.9921591 C9.65359144,43.2978137 9.78094753,43.5270547 9.95924605,43.7053532 C14.2384106,47.6279207 19.9184921,49.9967439 26.0825267,49.9967439 C39.2511462,49.9967439 50,39.2478901 50,26.0792707 C50,12.9106512 39.2511462,2.16179742 26.0825267,2.16179742 Z" sketch:type="MSShapeGroup"></path>
        </g>
    </g>
</svg>