<?xml version="1.0" encoding="UTF-8" standalone="no"?>
<svg width="50px" height="50px" viewBox="0 0 50 50" version="1.1" xmlns="http://www.w3.org/2000/svg" xmlns:xlink="http://www.w3.org/1999/xlink" xmlns:sketch="http://www.bohemiancoding.com/sketch/ns">
    <!-- Generator: Sketch 3.3.3 (12072) - http://www.bohemiancoding.com/sketch -->
    <title>webcam</title>
    <desc>Created with Sketch.</desc>
    <defs></defs>
    <g id="Page-1" stroke="none" stroke-width="1" fill="none" fill-rule="evenodd" sketch:type="MSPage">
        <g id="webcam" sketch:type="MSArtboardGroup" fill="#FF0000">
            <path d="M46.875,12.25 L37.5,12.25 L35.9375,7.68457031 C35.6445312,6.75683594 34.5947266,6 33.6914062,6 L16.3085938,6 C15.3320312,6 14.3554688,6.75683594 14.0136719,7.68457031 L12.5,12.25 L3.125,12.25 C1.39160156,12.25 0,13.6416016 0,15.375 L0,40.375 C0,42.1083984 1.39160156,43.5 3.125,43.5 L46.875,43.5 C48.6083984,43.5 50,42.1083984 50,40.375 L50,15.375 C50,13.6416016 48.6083984,12.25 46.875,12.25 L46.875,12.25 Z M25,37.25 C19.7998047,37.25 15.625,33.0751953 15.625,27.875 C15.625,22.7236328 19.7998047,18.5 25,18.5 C30.1513672,18.5 34.375,22.7236328 34.375,27.875 C34.375,33.0751953 30.1513672,37.25 25,37.25 L25,37.25 Z" id="camera" sketch:type="MSShapeGroup"></path>
        </g>
    </g>
</svg>