<?xml version="1.0" encoding="UTF-8" standalone="no"?>
<svg width="50px" height="50px" viewBox="0 0 50 50" version="1.1" xmlns="http://www.w3.org/2000/svg" xmlns:xlink="http://www.w3.org/1999/xlink" xmlns:sketch="http://www.bohemiancoding.com/sketch/ns">
    <!-- Generator: Sketch 3.3.3 (12072) - http://www.bohemiancoding.com/sketch -->
    <title>twitter</title>
    <desc>Created with Sketch.</desc>
    <defs></defs>
    <g id="Page-1" stroke="none" stroke-width="1" fill="none" fill-rule="evenodd" sketch:type="MSPage">
        <g id="twitter" sketch:type="MSArtboardGroup" fill="#FF0000">
            <path d="M44.0917969,11.4208984 C46.2402344,10.1513672 47.8515625,8.125 48.6083984,5.73242188 C46.6552734,6.90429688 44.4335938,7.75878906 42.1386719,8.22265625 C40.2099609,6.26953125 37.5488281,5 34.5947266,5 C28.9306641,5 24.3652344,9.56542969 24.3652344,15.2294922 C24.3652344,16.0351562 24.4140625,16.8652344 24.5849609,17.5976562 C16.0888672,17.1337891 8.56933594,13.2763672 3.46679688,7.07519531 C2.61230469,8.58886719 2.07519531,10.1513672 2.07519531,12.0556641 C2.07519531,15.5712891 3.88183594,18.6962891 6.66503906,20.5517578 C4.98046875,20.5029297 3.41796875,20.0390625 2.02636719,19.2822266 L2.02636719,19.4042969 C2.02636719,24.3847656 5.56640625,28.5351563 10.2539062,29.4628906 C9.375,29.7070312 8.44726562,29.8291016 7.51953125,29.8291016 C6.88476562,29.8291016 6.25,29.7558594 5.61523438,29.6337891 C6.88476562,33.6865234 10.7177734,36.7138672 15.1611328,36.7626953 C11.6943359,39.5458984 7.2265625,41.6210938 2.44140625,41.6210938 C1.61132812,41.6210938 0.805664062,41.5722656 0,41.4501953 C4.51660156,44.3554688 9.9609375,45.625 15.7470703,45.625 C34.5947266,45.625 44.8974609,30 44.8974609,16.4501953 L44.8974609,15.1074219 C46.875,13.6669922 48.6083984,11.8847656 50,9.78515625 C48.1445312,10.6152344 46.1914062,11.1767578 44.0917969,11.4208984 Z" sketch:type="MSShapeGroup"></path>
        </g>
    </g>
</svg>