<?xml version="1.0" encoding="UTF-8" standalone="no"?>
<svg width="50px" height="50px" viewBox="0 0 50 50" version="1.1" xmlns="http://www.w3.org/2000/svg" xmlns:xlink="http://www.w3.org/1999/xlink" xmlns:sketch="http://www.bohemiancoding.com/sketch/ns">
    <!-- Generator: Sketch 3.3.3 (12072) - http://www.bohemiancoding.com/sketch -->
    <title>cross</title>
    <desc>Created with Sketch.</desc>
    <defs></defs>
    <g id="Icons" stroke="none" stroke-width="1" fill="none" fill-rule="evenodd" sketch:type="MSPage">
        <g id="cross" sketch:type="MSArtboardGroup" fill="#000000">
            <path d="M31.467706,25 L40.8040089,15.6636971 C40.9287305,15.5033408 41,15.325167 41,15.1113586 C41,14.8975501 40.9287305,14.7371938 40.8040089,14.5768374 L35.4231626,9.19599109 C35.2628062,9.07126949 35.1024499,9 34.8886414,9 C34.674833,9 34.4966592,9.07126949 34.3363029,9.19599109 L25,18.532294 L15.6636971,9.19599109 C15.5033408,9.07126949 15.325167,9 15.1113586,9 C14.8975501,9 14.7371938,9.07126949 14.5768374,9.19599109 L9.19599109,14.5768374 C9.07126949,14.7371938 9,14.8975501 9,15.1113586 C9,15.325167 9.07126949,15.5033408 9.19599109,15.6636971 L18.532294,25 L9.19599109,34.3363029 C9.07126949,34.4966592 9,34.674833 9,34.8886414 C9,35.1024499 9.07126949,35.2628062 9.19599109,35.4231626 L14.5768374,40.8040089 C14.7371938,40.9287305 14.8975501,41 15.1113586,41 C15.325167,41 15.5033408,40.9287305 15.6636971,40.8040089 L25,31.467706 L34.3363029,40.8040089 C34.4966592,40.9287305 34.674833,41 34.8886414,41 C35.1024499,41 35.2628062,40.9287305 35.4231626,40.8040089 L40.8040089,35.4231626 C40.9287305,35.2628062 41,35.1024499 41,34.8886414 C41,34.674833 40.9287305,34.4966592 40.8040089,34.3363029 L31.467706,25 Z" id="close" sketch:type="MSShapeGroup"></path>
        </g>
    </g>
</svg>