<?xml version="1.0" encoding="UTF-8" standalone="no"?>
<svg width="50px" height="50px" viewBox="0 0 50 50" version="1.1" xmlns="http://www.w3.org/2000/svg" xmlns:xlink="http://www.w3.org/1999/xlink" xmlns:sketch="http://www.bohemiancoding.com/sketch/ns">
    <!-- Generator: Sketch 3.3.3 (12072) - http://www.bohemiancoding.com/sketch -->
    <title>play-circle</title>
    <desc>Created with Sketch.</desc>
    <defs></defs>
    <g id="Page-1" stroke="none" stroke-width="1" fill="none" fill-rule="evenodd" sketch:type="MSPage">
        <g id="play-circle" sketch:type="MSArtboardGroup" fill="#FF0000">
            <path d="M25,50 C38.8071187,50 50,38.8071187 50,25 C50,11.1928813 38.8071187,0 25,0 C11.1928813,0 0,11.1928813 0,25 C0,38.8071187 11.1928813,50 25,50 Z M15.787092,37.9363871 L40.6947455,25.4825604 C40.885171,25.3936952 40.9994263,25.2159647 40.9994263,25.0001492 C40.9994263,24.7843336 40.885171,24.6066032 40.6947455,24.5177379 L15.787092,12.0639112 C15.5966665,11.9750459 15.4189361,11.9750459 15.2412056,12.0893012 C15.0888652,12.1781665 15,12.3558969 15,12.5463224 L15,37.4539759 C15,37.6444014 15.0888652,37.8221319 15.2412056,37.9109971 C15.3300708,37.9744722 15.4570212,37.9998623 15.5458864,37.9998623 C15.6347516,37.9998623 15.6982268,37.9744722 15.787092,37.9363871 Z" sketch:type="MSShapeGroup"></path>
        </g>
    </g>
</svg>