<?xml version="1.0" encoding="UTF-8" standalone="no"?>
<svg width="50px" height="50px" viewBox="0 0 50 50" version="1.1" xmlns="http://www.w3.org/2000/svg" xmlns:xlink="http://www.w3.org/1999/xlink" xmlns:sketch="http://www.bohemiancoding.com/sketch/ns">
    <!-- Generator: Sketch 3.3.3 (12072) - http://www.bohemiancoding.com/sketch -->
    <title>soundcloud</title>
    <desc>Created with Sketch.</desc>
    <defs></defs>
    <g id="Page-1" stroke="none" stroke-width="1" fill="none" fill-rule="evenodd" sketch:type="MSPage">
        <g id="soundcloud" sketch:type="MSArtboardGroup" fill="#FF0000">
            <path d="M23.2357177,13.0321651 C22.6836294,13.2481997 22.5636102,13.4882381 22.5396063,13.8963034 L22.5396063,36.4359097 C22.5636102,36.8919827 22.8756601,37.2520403 23.3317331,37.300048 L42.8708593,37.300048 C46.831493,37.300048 50,34.131541 50,30.1949112 C50,26.2582813 46.831493,23.0897744 42.8708593,23.0897744 C41.9107057,23.0897744 40.9985598,23.2818051 40.1344215,23.6418627 C39.5823332,17.2328373 34.181469,12 27.6524244,12 C26.0441671,12 24.6279405,12.4800768 23.2357177,13.0321651 L23.2357177,13.0321651 Z M18.0988958,36.6039366 C18.7710034,34.1075372 19.131061,30.5069611 19.131061,29.5468075 C19.131061,28.6346615 18.5789726,19.1051368 18.0268843,15.9606337 C17.9308689,15.5285646 17.4507921,15.1204993 16.9947192,15.1204993 C16.5146423,15.1204993 16.0345655,15.5285646 15.962554,15.9606337 C15.3864618,19.1051368 14.8343735,28.6346615 14.8343735,29.5468075 C14.8343735,30.5069611 15.1944311,34.1075372 15.8665386,36.6039366 C16.0105617,37.1800288 16.5146423,37.4920787 16.9947192,37.4920787 C17.4507921,37.4920787 17.9548728,37.1800288 18.0988958,36.6039366 L18.0988958,36.6039366 Z M10.7537206,36.5079213 C11.2818051,34.6836294 11.7138742,30.530965 11.7138742,29.7148344 C11.7138742,28.8987038 11.3058089,23.2337974 10.6337014,20.137302 C10.5136822,19.6332213 10.0096015,19.3211714 9.57753241,19.3211714 C9.12145943,19.3211714 8.61737878,19.6332213 8.49735958,20.137302 C7.82525204,23.2337974 7.41718675,28.8987038 7.41718675,29.7148344 C7.41718675,30.530965 7.84925588,34.6836294 8.40134422,36.5079213 C8.59337494,37.156025 9.04944791,37.5160826 9.57753241,37.5160826 C10.1056169,37.5160826 10.537686,37.156025 10.7537206,36.5079213 L10.7537206,36.5079213 Z M1.00816131,25.1301008 C0.38406145,27.0024004 0,29.3307729 0,29.9788766 C0,30.6269803 0.38406145,32.9553529 1.00816131,34.8276524 C1.20019203,35.4517523 1.72827652,35.6197792 2.16034566,35.6197792 C2.56841095,35.6197792 3.09649544,35.4517523 3.28852616,34.8276524 C3.91262602,32.9553529 4.29668747,30.6269803 4.29668747,29.9788766 C4.29668747,29.3307729 3.91262602,27.0024004 3.28852616,25.1301008 C3.09649544,24.506001 2.56841095,24.3139702 2.16034566,24.3139702 C1.72827652,24.3139702 1.20019203,24.506001 1.00816131,25.1301008 L1.00816131,25.1301008 Z" sketch:type="MSShapeGroup"></path>
        </g>
    </g>
</svg>