<svg xmlns="http://www.w3.org/2000/svg"><symbol id="icon-bandcamp" viewBox="0 0 50 50"><title>bandcamp</title><path d="M50 2.552c0-1.733-1.392-2.83-3.076-2.49l-27.197 5.98c-1.66.39-3.052 2.075-3.052 3.808v22.455H15.16c-1.268 0-2.71.17-4.223.463C4.907 33.915 0 38.943 0 43.532c0 4.613 4.907 7.395 10.938 6.175 6.03-1.147 10.937-5.955 10.937-12.204V18.758L44.8 13.56v12.496h-1.514c-1.27 0-2.71.17-4.224.464-6.03 1.147-10.937 6.175-10.937 10.764 0 4.613 4.907 7.395 10.938 6.175C45.093 42.31 50 37.502 50 31.254V2.552z" fill-rule="evenodd"/></symbol><symbol id="icon-cross" viewBox="0 0 50 50"><title>cross</title><path d="M31.468 25l9.336-9.336c.125-.16.196-.34.196-.553 0-.212-.07-.373-.196-.533l-5.38-5.38C35.263 9.07 35.1 9 34.888 9c-.215 0-.393.07-.554.196L25 18.532l-9.336-9.336c-.16-.125-.34-.196-.553-.196-.212 0-.373.07-.533.196l-5.38 5.38c-.126.16-.197.322-.197.535 0 .215.07.393.196.554L18.532 25l-9.336 9.336c-.125.16-.196.34-.196.553 0 .212.07.373.196.533l5.38 5.38c.16.126.322.197.535.197.215 0 .393-.07.554-.196L25 31.468l9.336 9.336c.16.125.34.196.553.196.212 0 .373-.07.533-.196l5.38-5.38c.126-.16.197-.322.197-.535 0-.215-.07-.393-.196-.554L31.468 25z" fill-rule="evenodd"/></symbol><symbol id="icon-dots-one" viewBox="0 0 50 50"><title>dots-one</title><path d="M25 35c-5.547 0-10-4.453-10-10 0-5.495 4.453-10 10-10 5.495 0 10 4.505 10 10 0 5.547-4.505 10-10 10z" fill-rule="evenodd"/></symbol><symbol id="icon-dots-two" viewBox="0 0 50 50"><title>dots-two</title><g fill-rule="evenodd"><path d="M40 35c-5.547 0-10-4.453-10-10 0-5.495 4.453-10 10-10 5.495 0 10 4.505 10 10 0 5.547-4.505 10-10 10zM10 35C4.453 35 0 30.547 0 25c0-5.495 4.453-10 10-10 5.495 0 10 4.505 10 10 0 5.547-4.505 10-10 10z"/></g></symbol><symbol id="icon-facebook" viewBox="0 0 50 50"><title>facebook</title><path d="M46.875 0H3.125C1.415 0 0 1.416 0 3.125v43.75C0 48.585 1.416 50 3.125 50h23.608V30.566h-6.25v-7.202h6.25V17.14c0-5.69 3.467-9.498 10.328-9.498 3.028 0 5.127.34 5.127.34v6.496H37.5c-2.075 0-3.125 1.17-3.125 3.222v5.664h7.3l-1.05 7.202h-6.25V50h12.5C48.585 50 50 48.584 50 46.875V3.125C50 1.415 48.584 0 46.875 0z" fill-rule="evenodd"/></symbol><symbol id="icon-play-circle" viewBox="0 0 50 50"><title>play-circle</title><path d="M25 50c13.807 0 25-11.193 25-25S38.807 0 25 0 0 11.193 0 25s11.193 25 25 25zm-9.213-12.064l24.908-12.453c.19-.09.304-.267.304-.483 0-.216-.115-.393-.305-.482L15.787 12.064c-.19-.09-.368-.09-.546.025-.15.088-.24.266-.24.456v24.908c0 .19.09.368.24.457.09.064.217.09.306.09.09 0 .152-.026.24-.064z" fill-rule="evenodd"/></symbol><symbol id="icon-play" viewBox="0 0 50 50"><title>play</title><path d="M1.05 50c.17 0 .293-.05.464-.122l47.9-23.95c.366-.17.585-.513.585-.928 0-.415-.22-.757-.587-.927L1.513.123C1.148-.047.807-.047.464.17.172.343 0 .685 0 1.05v47.9c0 .366.17.708.464.88.17.12.415.17.586.17z" fill-rule="evenodd"/></symbol><symbol id="icon-replay" viewBox="0 0 50 50"><title>replay</title><path d="M26.083 2.162c-6.215 0-11.845 2.37-16.124 6.29L1.86.303C1.58-.003 1.094-.054.66.048.23.226 0 .658 0 1.092v20.632c0 .61.484 1.095 1.095 1.095h20.632c.433 0 .866-.23 1.044-.663.103-.433.052-.917-.253-1.197l-6.394-6.343c2.65-2.37 6.164-3.744 9.96-3.744 8.38 0 15.206 6.826 15.206 15.206 0 8.38-6.827 15.206-15.207 15.206-3.796 0-7.362-1.452-10.01-3.745-.434-.406-1.096-.355-1.453 0l-4.66 4.663c-.23.23-.306.484-.306.79 0 .305.127.534.305.712 4.278 3.923 9.958 6.292 16.123 6.292C39.25 49.997 50 39.247 50 26.08 50 12.91 39.25 2.16 26.083 2.16z" fill-rule="evenodd"/></symbol><symbol id="icon-skip" viewBox="0 0 50 50"><title>skip</title><path d="M15.59.293L8.293 7.59c-.39.39-.39 1.098 0 1.49l15.912 15.91L8.293 40.904c-.39.39-.39 1.098 0 1.49l7.297 7.296c.39.414 1.098.414 1.49 0l23.965-23.943c.39-.414.39-1.098 0-1.513L17.08.294C16.86.12 16.64 0 16.346 0s-.537.122-.757.293z" fill-rule="evenodd"/></symbol><symbol id="icon-soundcloud" viewBox="0 0 50 50"><title>soundcloud</title><path d="M23.236 13.032c-.552.216-.672.456-.696.864v22.54c.024.456.336.816.792.864h19.54c3.96 0 7.128-3.168 7.128-7.105 0-3.937-3.17-7.105-7.13-7.105-.96 0-1.87.192-2.736.552C39.582 17.232 34.18 12 27.652 12c-1.608 0-3.024.48-4.416 1.032zM18.1 36.604c.67-2.496 1.03-6.097 1.03-7.057 0-.912-.55-10.442-1.103-13.586-.096-.43-.576-.84-1.032-.84-.48 0-.96.41-1.032.84-.577 3.145-1.13 12.675-1.13 13.587 0 .96.36 4.56 1.034 7.057.144.576.648.888 1.128.888.456 0 .96-.312 1.104-.888zm-7.346-.096c.528-1.824.96-5.977.96-6.793 0-.816-.408-6.48-1.08-9.578-.12-.504-.624-.816-1.056-.816-.457 0-.96.313-1.08.817-.673 3.097-1.08 8.762-1.08 9.578 0 .816.43 4.97.983 6.793.193.648.65 1.008 1.178 1.008.528 0 .96-.36 1.176-1.008zM1.008 25.13C.384 27.002 0 29.33 0 29.98c0 .647.384 2.975 1.008 4.848.192.624.72.792 1.152.792.408 0 .936-.168 1.13-.792.623-1.873 1.007-4.2 1.007-4.85 0-.647-.384-2.976-1.008-4.848-.194-.624-.722-.816-1.13-.816-.432 0-.96.192-1.152.816z" fill-rule="evenodd"/></symbol><symbol id="icon-spinner" viewBox="0 0 50 50"><title>spinner</title><path d="M41.9 23.9c-.3-6.1-4-11.8-9.5-14.4-6-2.7-13.3-1.6-18.3 2.6-4.8 4-7 10.5-5.6 16.6 1.3 6 6 10.9 11.9 12.5 7.1 2 13.6-1.4 17.6-7.2-3.6 4.8-9.1 8-15.2 6.9-6.1-1.1-11.1-5.7-12.5-11.7-1.5-6.4 1.5-13.1 7.2-16.4 5.9-3.4 14.2-2.1 18.1 3.7 1 1.4 1.7 3.1 2 4.8.3 1.4.2 2.9.4 4.3.2 1.3 1.3 3 2.8 2.1 1.3-.8 1.2-2.5 1.1-3.8 0-.4.1.7 0 0z" fill-rule="evenodd"/></symbol><symbol id="icon-tick" viewBox="0 0 50 50"><title>tick</title><path d="M44.75 16.26c.333-.312.333-.878 0-1.19l-5.834-5.836c-.313-.312-.88-.312-1.19 0l-17.722 17.76-7.73-7.767c-.31-.312-.877-.312-1.19 0L5.25 25.062c-.333.313-.333.88 0 1.19l14.15 14.17c.194.137.37.235.604.235.234 0 .41-.098.605-.235L44.75 16.26z" fill-rule="evenodd"/></symbol><symbol id="icon-twitter" viewBox="0 0 50 50"><title>twitter</title><path d="M44.092 11.42c2.148-1.27 3.76-3.295 4.516-5.688-1.953 1.172-4.174 2.027-6.47 2.49C40.21 6.27 37.55 5 34.596 5c-5.664 0-10.23 4.565-10.23 10.23 0 .805.05 1.635.22 2.368C16.09 17.134 8.57 13.276 3.467 7.075c-.855 1.514-1.392 3.076-1.392 4.98 0 3.516 1.807 6.64 4.59 8.497-1.685-.05-3.247-.513-4.64-1.27v.122c0 4.98 3.54 9.13 8.23 10.06-.88.243-1.808.365-2.735.365-.635 0-1.27-.074-1.905-.196 1.27 4.053 5.103 7.08 9.546 7.13-3.466 2.782-7.933 4.857-12.72 4.857-.83 0-1.634-.048-2.44-.17 4.517 2.905 9.96 4.175 15.747 4.175 18.848 0 29.15-15.625 29.15-29.175v-1.343c1.978-1.44 3.71-3.222 5.103-5.322-1.855.83-3.81 1.392-5.908 1.636z" fill-rule="evenodd"/></symbol><symbol id="icon-webcam" viewBox="0 0 50 50"><title>webcam</title><path d="M46.875 12.25H37.5l-1.563-4.565C35.645 6.757 34.596 6 33.691 6H16.31c-.978 0-1.955.757-2.296 1.685L12.5 12.25H3.125C1.392 12.25 0 13.642 0 15.375v25C0 42.108 1.392 43.5 3.125 43.5h43.75c1.733 0 3.125-1.392 3.125-3.125v-25c0-1.733-1.392-3.125-3.125-3.125zM25 37.25c-5.2 0-9.375-4.175-9.375-9.375 0-5.15 4.175-9.375 9.375-9.375 5.15 0 9.375 4.224 9.375 9.375 0 5.2-4.224 9.375-9.375 9.375z" fill-rule="evenodd"/></symbol><symbol id="icon-youtube" viewBox="0 0 50 50"><title>youtube</title><path d="M25 7C0 7 0 7 0 24.7s0 17.7 25 17.7 25 0 25-17.7S50 7 25 7zm-6.25 27.075v-18.75L34.375 24.7 18.75 34.075z" fill-rule="evenodd"/></symbol><symbol id="svg"/></svg>